# xmcd
#
# Track frame offsets:
#	150
#	14360
#	33390
#	52221
#	71444
#	95234
#	115176
#	131766
#	149440
#	165126
#	187452
#	206367
#	221777
#	239656
#	257786
#	258329
#	274370
#	290791
#	306423
#	324901
#
# Disc length: 4540 seconds
#
# Revision: 3
# Processed by: cddbd v1.5.2PL0 Copyright (c) Steve Scherf et al.
# Submitted via: EasyCDDAExtractor 15.3.0.1
#
DISCID=4911ba14
DTITLE=Laura Pausini - 20 - Grandes Exitos - CD 2
DYEAR=2013
DGENRE=Latin
TTITLE0=She (Uguale A Lei) (New Version 2013)
TTITLE1=Surrender To Love (With Ray Charles)
TTITLE2=Disparame Dispara
TTITLE3=¡Vive Ya! (Vivere) (With Andrea Bocelli)
TTITLE4=Te Amare (With Miguel Bose)
TTITLE5=Ascolta Il Tuo Cuore (Live 2007 At San Siro Stadium In Milan, Italy)
TTITLE6=Paris Au Mois D'aout (With Charles Aznavour)
TTITLE7=En Cambio No
TTITLE8=Primavera Anticipada (It Is My Song) (With James Blunt)
TTITLE9=Con La Musica En La Radio (New Version 2013)
TTITLE10=Un' Emergenza D'amore (Live 2009 At Lincoln Center, Manhattan, NYC, U
TTITLE10=SA)
TTITLE11=Jamas Abandone
TTITLE12=Bienvenido
TTITLE13=Asi Celeste
TTITLE14=Paola 2013
TTITLE15=Resta In Ascolto, Escucha Atento (Live 2012 At Royal Albert Hall, Lon
TTITLE15=don, UK)
TTITLE16=Donde Quedo Solo Yo
TTITLE17=Limpio (Solo Version)
TTITLE18=Sino A Ti
TTITLE19=Limpio (With Kylie Minogue) (Spanglish Version)
EXTD=
EXTT0=
EXTT1=
EXTT2=
EXTT3=
EXTT4=
EXTT5=
EXTT6=
EXTT7=
EXTT8=
EXTT9=
EXTT10=
EXTT11=
EXTT12=
EXTT13=
EXTT14=
EXTT15=
EXTT16=
EXTT17=
EXTT18=
EXTT19=
PLAYORDER=
